<svg xmlns="http://www.w3.org/2000/svg" width="167" height="164" fill="none" viewBox="0 0 167 164">
    <g filter="url(#filter0_f)">
        <path stroke="#E5E5E5" stroke-opacity=".7" stroke-width="2" d="M147.032 99.517c-7.025 14.445-24.226 20.056-44.086 21.195-19.784 1.135-41.776-2.197-57.762-5.195-12.125-2.273-22.51-9.486-27.534-19.222-4.995-9.68-4.768-22.001 4.588-34.749 4.659-6.347 12.752-12.64 22.354-17.98 9.586-5.332 20.59-9.667 30.99-12.139 10.427-2.479 20.121-3.055 27.148-1 3.497 1.023 6.281 2.681 8.193 5.03 1.903 2.338 3.009 5.445 3.009 9.498 0 10.692 3.041 17.744 7.456 22.733 4.382 4.951 10.047 7.78 15.079 10.161l.981.463c2.166 1.02 4.176 1.967 5.941 2.996 2.025 1.18 3.638 2.421 4.726 3.904 2.087 2.842 2.493 6.953-1.083 14.305z"/>
    </g>
    <path stroke="#E5E5E5" stroke-opacity=".7" stroke-width="2" d="M147.032 99.517c-7.025 14.445-24.226 20.056-44.086 21.195-19.784 1.135-41.776-2.197-57.762-5.195-12.125-2.273-22.51-9.486-27.534-19.222-4.995-9.68-4.768-22.001 4.588-34.749 4.659-6.347 12.752-12.64 22.354-17.98 9.586-5.332 20.59-9.667 30.99-12.139 10.427-2.479 20.121-3.055 27.148-1 3.497 1.023 6.281 2.681 8.193 5.03 1.903 2.338 3.009 5.445 3.009 9.498 0 10.692 3.041 17.744 7.456 22.733 4.382 4.951 10.047 7.78 15.079 10.161l.981.463c2.166 1.02 4.176 1.967 5.941 2.996 2.025 1.18 3.638 2.421 4.726 3.904 2.087 2.842 2.493 6.953-1.083 14.305z"/>
    <defs>
        <filter id="filter0_f" width="153.297" height="109.763" x="5.408" y="20.176" color-interpolation-filters="sRGB" filterUnits="userSpaceOnUse">
            <feFlood flood-opacity="0" result="BackgroundImageFix"/>
            <feBlend in="SourceGraphic" in2="BackgroundImageFix" result="shape"/>
            <feGaussianBlur result="effect1_foregroundBlur" stdDeviation="4"/>
        </filter>
    </defs>
</svg>
