<svg xmlns="http://www.w3.org/2000/svg" width="153" height="141" fill="none" viewBox="0 0 153 141">
    <g filter="url(#filter0_f)">
        <path stroke="#E5E5E5" d="M114.703 92.595c-16.74 3.7-28.335 8.746-37.567 12.763-1.651.719-3.227 1.404-4.743 2.044-9.989 4.211-17.317 6.373-26.712 2.841-10.696-4.021-18.847-10.74-23.924-19.458-5.078-8.72-7.1-19.474-5.48-31.599 1.57-11.767 8.479-21.384 20.175-27.326 11.711-5.95 28.244-8.223 49.03-5.211 37.566 5.443 54.414 19.943 57.179 33.892 2.756 13.907-8.42 27.736-27.958 32.054z"/>
    </g>
    <path stroke="#E5E5E5" d="M114.703 92.595c-16.74 3.7-28.335 8.746-37.567 12.763-1.651.719-3.227 1.404-4.743 2.044-9.989 4.211-17.317 6.373-26.712 2.841-10.696-4.021-18.847-10.74-23.924-19.458-5.078-8.72-7.1-19.474-5.48-31.599 1.57-11.767 8.479-21.384 20.175-27.326 11.711-5.95 28.244-8.223 49.03-5.211 37.566 5.443 54.414 19.943 57.179 33.892 2.756 13.907-8.42 27.736-27.958 32.054z"/>
    <defs>
        <filter id="filter0_f" width="144.348" height="103.694" x="7.229" y="16.822" color-interpolation-filters="sRGB" filterUnits="userSpaceOnUse">
            <feFlood flood-opacity="0" result="BackgroundImageFix"/>
            <feBlend in="SourceGraphic" in2="BackgroundImageFix" result="shape"/>
            <feGaussianBlur result="effect1_foregroundBlur" stdDeviation="4"/>
        </filter>
    </defs>
</svg>
