<svg xmlns="http://www.w3.org/2000/svg" width="174" height="170" fill="none" viewBox="0 0 174 170">
    <path stroke="#E5E5E5" stroke-opacity=".7" stroke-width="2" d="M150.037 100.114c-13.979 7.296-32.638 13.768-51.792 17.666-19.164 3.899-38.736 5.204-54.56 2.237-12.046-2.258-21.412-10.264-25.455-20.848-4.037-10.566-2.8-23.801 6.576-36.577 9.351-12.74 22.556-18.676 38.402-20.415 15.883-1.743 34.35.74 54.09 4.803 22.761 4.684 37.719 14.658 43.562 25.036 2.906 5.163 3.548 10.395 1.857 15.185-1.697 4.804-5.796 9.32-12.68 12.913z"/>
    <path stroke="#E5E5E5" stroke-opacity=".7" stroke-width="2" d="M150.037 100.114c-13.979 7.296-32.638 13.768-51.792 17.666-19.164 3.899-38.736 5.204-54.56 2.237-12.046-2.258-21.412-10.264-25.455-20.848-4.037-10.566-2.8-23.801 6.576-36.577 9.351-12.74 22.556-18.676 38.402-20.415 15.883-1.743 34.35.74 54.09 4.803 22.761 4.684 37.719 14.658 43.562 25.036 2.906 5.163 3.548 10.395 1.857 15.185-1.697 4.804-5.796 9.32-12.68 12.913z"/>
</svg>
