<svg xmlns="http://www.w3.org/2000/svg" width="155" height="116" fill="none" viewBox="0 0 155 116">
    <g filter="url(#filter0_f)">
        <path stroke="#E5E5E5" d="M142.051 65.608c-6.967 14.183-15.831 24.477-26.945 31.23-11.115 6.754-24.52 9.99-40.606 9.99-16.072 0-32.596-4.402-45.087-12.8C16.933 85.639 8.5 73.28 8.5 57.329c0-7.955 2.537-13.59 6.881-17.86 4.365-4.291 10.589-7.237 18.026-9.722 5.284-1.765 11.14-3.285 17.334-4.893 2.526-.656 5.108-1.326 7.73-2.034 9.04-2.439 18.531-5.312 27.738-9.536 21.046-9.657 38.433-3.586 48.851 8.374 10.451 11.996 13.89 29.907 6.991 43.95z"/>
    </g>
    <path stroke="#E5E5E5" stroke-opacity=".7" stroke-width="2" d="M141.602 65.387c-6.934 14.117-15.74 24.33-26.756 31.024-11.018 6.695-24.327 9.917-40.346 9.917-15.99 0-32.413-4.381-44.808-12.714C17.317 85.294 9 73.078 9 57.328c0-7.832 2.491-13.336 6.732-17.504 4.282-4.21 10.418-7.126 17.833-9.603 5.268-1.76 11.097-3.273 17.284-4.88 2.529-.656 5.118-1.328 7.753-2.04 9.048-2.44 18.57-5.322 27.815-9.564 20.843-9.563 37.992-3.546 48.266 8.248 10.339 11.867 13.716 29.566 6.919 43.402z"/>
    <defs>
        <filter id="filter0_f" width="154.139" height="115.328" x="0" y="0" color-interpolation-filters="sRGB" filterUnits="userSpaceOnUse">
            <feFlood flood-opacity="0" result="BackgroundImageFix"/>
            <feBlend in="SourceGraphic" in2="BackgroundImageFix" result="shape"/>
            <feGaussianBlur result="effect1_foregroundBlur" stdDeviation="4"/>
        </filter>
    </defs>
</svg>
